<svg xmlns="http://www.w3.org/2000/svg" xmlns:xlink="http://www.w3.org/1999/xlink" fill="none" version="1.1" width="24" height="24" viewBox="0 0 24 24"><defs><clipPath id="master_svg0_65_32534"><rect x="0" y="0" width="24" height="24" rx="0"/></clipPath></defs><g clip-path="url(#master_svg0_65_32534)"><g><rect x="0" y="0" width="24" height="24" rx="0" fill="#FFFFFF" fill-opacity="0.009999999776482582" style="mix-blend-mode:passthrough"/></g><g><path d="M4.707241058789062,3.2930122600000002L20.707123258789064,19.292893Q20.847774258789062,19.433546,20.923895258789063,19.617317Q21.000015258789062,19.801088,21.000015258789062,20Q21.000015258789062,20.098492,20.980800258789063,20.195089Q20.961586258789062,20.291687,20.92389325878906,20.382683Q20.886202258789062,20.473675,20.831482258789062,20.555569Q20.77676425878906,20.637461,20.707121258789062,20.707106Q20.63747625878906,20.776749,20.55558425878906,20.831469Q20.473690258789063,20.886187,20.382698258789063,20.923878Q20.291702258789062,20.961571,20.195104258789062,20.980785Q20.098507258789063,21,20.000015258789062,21Q19.801103258789063,21,19.617332258789062,20.92388Q19.433561258789062,20.847759,19.292908258789062,20.707108L3.2930275187890627,4.7072258L3.2929084887890623,4.70710677Q3.1522561887890626,4.56645453,3.0761357587890625,4.38268346Q3.0000152587890625,4.19891237,3.0000152587890625,4Q3.0000153187890626,3.9015086,3.0192300687890627,3.80490969Q3.0384448187890625,3.70831078,3.0761358787890627,3.6173166Q3.1138268687890625,3.52632242,3.1685457187890624,3.44442987Q3.2232646387890624,3.36253726,3.2929085487890624,3.29289329Q3.3625525187890624,3.22324938,3.4444450687890624,3.16853052Q3.5263376787890626,3.11381161,3.6173318587890626,3.07612056Q3.7083260387890626,3.0384295,3.8049249487890626,3.0192148100000002Q3.9015238587890626,3.00000006,4.0000152587890625,3Q4.198927628789063,3,4.3826987187890625,3.07612044Q4.566469788789062,3.15224093,4.707122028789063,3.29289323L4.707241058789062,3.2930122600000002Z" fill-rule="evenodd" fill="#333333" fill-opacity="1" style="mix-blend-mode:passthrough"/></g><g><path d="M20.707123258789064,4.70710641Q20.847774258789062,4.5664541100000005,20.92389325878906,4.38268316Q21.000015258789062,4.19891222,21.000015258789062,4Q21.000015258789062,3.9015086,20.980800258789063,3.80490969Q20.961586258789062,3.70831078,20.92389325878906,3.6173166Q20.886202258789062,3.52632242,20.831482258789062,3.44442987Q20.77676425878906,3.36253726,20.707121258789062,3.29289329Q20.63747625878906,3.22324938,20.55558425878906,3.16853052Q20.473690258789063,3.11381161,20.382698258789063,3.07612056Q20.291702258789062,3.0384295,20.195104258789062,3.0192148100000002Q20.098507258789063,3.00000006,20.000015258789062,3Q19.80110125878906,3.00000006,19.61733025878906,3.0761205Q19.433560258789065,3.15224093,19.292908258789062,3.29289311L19.29253425878906,3.29326832L3.2932835787890626,19.292519L3.2929084887890623,19.292893Q3.1522562487890626,19.433545000000002,3.0761357587890625,19.617316000000002Q3.0000153187890626,19.801085999999998,3.0000152587890625,20Q3.0000153187890626,20.098492,3.0192300687890627,20.195089Q3.0384448187890625,20.291687,3.0761358787890627,20.382683Q3.1138268687890625,20.473675,3.1685457187890624,20.555569Q3.2232646387890624,20.637461,3.2929085487890624,20.707106Q3.3625525187890624,20.776749,3.4444450687890624,20.831469Q3.5263376787890626,20.886187,3.6173318587890626,20.923878Q3.7083260387890626,20.961571,3.8049249487890626,20.980785Q3.9015238587890626,21,4.0000152587890625,21Q4.198927478789063,21,4.3826984187890625,20.923878Q4.566469368789063,20.847759,4.707121668789062,20.707108L20.707123258789064,4.70710677L20.707123258789064,4.70710641Z" fill-rule="evenodd" fill="#333333" fill-opacity="1" style="mix-blend-mode:passthrough"/></g></g></svg>