<svg xmlns="http://www.w3.org/2000/svg" xmlns:xlink="http://www.w3.org/1999/xlink" fill="none" version="1.1" width="240" height="240" viewBox="0 0 240 240"><defs><linearGradient x1="0.5" y1="0" x2="0.5" y2="1" id="master_svg0_5_252140"><stop offset="0%" stop-color="#0DE4E7" stop-opacity="1"/><stop offset="100%" stop-color="#7069FC" stop-opacity="1"/></linearGradient></defs><g><g style="opacity:0;"><rect x="0" y="0" width="240" height="240" rx="0" fill="#D8D8D8" fill-opacity="1"/></g><g><path d="M51.340026828125,95.17001337695312L51.340026828125,87.94000237695313C53.739989828125,90.01998937695312,55.109985828125,91.13998437695312,56.450011828125,92.25994837695312C71.600036828125,106.40994237695313,86.700011828125,120.62997637695312,101.910033828125,134.72994637695314C113.410038828125,145.41995637695314,126.780028828125,145.38992637695313,138.330018828125,134.72994637695314C148.330018828125,125.50997637695312,158.220028828125,116.16995637695312,168.160038828125,106.87997437695313L228.160038828125,50.87997437695312C234.760008828125,44.72998037695312,237.829958828125,37.449981376953126,235.239988828125,28.509979376953126C232.559938828125,19.269988976953126,225.880008828125,14.199981676953126,216.739988828125,12.509979246953126C208.159908828125,10.929962176953126,200.809938828125,13.749969476953126,194.469968828125,19.749969476953126Q167.589968828125,44.92996237695313,140.679988828125,70.06997637695312C133.899958828125,76.39999437695313,127.109988828125,82.70999137695313,120.169978828125,89.16998337695313C118.710018828125,87.87997437695313,117.460018828125,86.81997637695312,116.260008828125,85.69998137695312Q82.100036828125,53.73999037695312,47.920043828125,21.799987776953124C46.055907828125,19.912841776953126,44.050048828125,18.171081576953124,41.920043828125,16.589996376953124C33.820068828125,11.089996336953124,25.200011828125,10.540008576953126,16.480041828125,14.899993876953125C7.9500732281249995,19.159973176953123,4.050048828125,26.229980376953122,4.050048828125,35.82998637695313L4.050048828125,205.00997637695312C4.050048828125,215.48000637695313,9.350097628124999,223.75997637695312,18.830077828125,226.91000637695313C35.860046828125,232.56997637695312,51.570068828125,221.7699863769531,51.430053828125,204.63998637695312C51.217513828125,178.80662637695312,51.260905828125,152.95315637695313,51.304298828125,127.10095637695312C51.322162828125,116.45660637695312,51.340026828125,105.81245437695313,51.340026828125,95.17001337695312ZM189.359988828125,204.80001637695312C188.160038828125,218.36001637695313,198.090088828125,228.20999637695311,212.160038828125,228.20999637695311C212.391568828125,228.20999637695311,212.623658828125,228.21382637695314,212.855128828125,228.21763637695312C213.613398828125,228.23014637695312,214.365208828125,228.24255637695313,215.070068828125,228.1199063769531C224.340088828125,227.35989637695312,230.980098828125,222.46987637695312,234.500118828125,214.1199063769531C238.020138828125,205.76992637695312,235.560058828125,198.56991637695313,229.110108828125,192.56991637695313C226.940188828125,190.51992637695312,224.690188828125,188.56991637695313,222.520138828125,186.51992637695312C214.710078828125,179.11996637695313,214.770138828125,168.94991637695313,222.710078828125,161.71993637695311C225.530028828125,159.15994637695312,228.479978828125,156.70992637695312,231.030028828125,153.88992637695313C236.900028828125,147.42989637695314,237.610108828125,139.5599063769531,233.320068828125,131.88992637695313C227.849978828125,122.11996637695313,215.599978828125,117.75991637695313,204.400028828125,121.34994637695313C189.770018828125,126.03994637695313,182.400028828125,144.90994637695312,196.400028828125,156.73995637695313C198.479978828125,158.44998637695312,200.460078828125,160.21999637695313,202.400028828125,162.0199863769531C210.059938828125,169.18002637695312,210.099978828125,179.19998637695312,202.489988828125,186.46999637695313C199.619868828125,189.20999637695311,196.239988828125,191.56997637695312,193.929928828125,194.71999637695313C191.770018828125,197.6499963769531,189.660038828125,201.31002637695312,189.359988828125,204.80001637695312Z" fill-rule="evenodd" fill="url(#master_svg0_5_252140)" fill-opacity="1" style="mix-blend-mode:passthrough"/></g></g></svg>